<?xml version="1.0" encoding="utf-8"?>
<!-- Generator: Adobe Illustrator 25.4.1, SVG Export Plug-In . SVG Version: 6.00 Build 0)  -->
<svg version="1.1" id="레이어_1" xmlns="http://www.w3.org/2000/svg" xmlns:xlink="http://www.w3.org/1999/xlink" x="0px"
	 y="0px" viewBox="0 0 124.75 27.15" style="enable-background:new 0 0 124.75 27.15;" xml:space="preserve">
<style type="text/css">
	.st0{fill:#141414;}
	.st1{fill:#FFCD50;}
	.st2{fill:#FFFFFF;}
	.st3{opacity:0.6;fill:url(#SVGID_1_);enable-background:new    ;}
	.st4{opacity:0.6;fill:url(#SVGID_00000129918711000308172250000011066906808440143783_);enable-background:new    ;}
	.st5{opacity:0.6;fill:url(#SVGID_00000013898274653318325020000014337396991471227576_);enable-background:new    ;}
</style>
<path class="st0" d="M81.24,9.93c-3.16,0-5.73,2.56-5.73,5.73s2.56,5.73,5.73,5.73s5.73-2.56,5.73-5.73S84.4,9.93,81.24,9.93z
	 M81.24,18.33c-1.48,0-2.67-1.2-2.67-2.67s1.2-2.67,2.67-2.67c1.48,0,2.67,1.2,2.67,2.67S82.72,18.33,81.24,18.33z"/>
<path class="st0" d="M48.78,10.59c-0.8-0.42-1.71-0.66-2.67-0.66c-3.16,0-5.73,2.56-5.73,5.73s2.56,5.73,5.73,5.73
	c0.97,0,1.87-0.24,2.67-0.66v0.66h3.05V9.93h-3.05V10.59z M46.11,18.33c-1.48,0-2.67-1.2-2.67-2.67s1.2-2.67,2.67-2.67
	c1.48,0,2.67,1.2,2.67,2.67S47.58,18.33,46.11,18.33z"/>
<rect x="53.75" y="9.93" class="st0" width="3.05" height="11.46"/>
<rect x="58.71" y="9.93" class="st0" width="3.05" height="11.46"/>
<path class="st0" d="M68.92,9.93c-0.78,0-1.53,0.17-2.19,0.48V9.93h-3.05v11.46h3.05v-6.21c0-1.21,0.98-2.19,2.19-2.19
	s2.19,0.98,2.19,2.19v6.21h3.05v-6.21C74.18,12.28,71.82,9.93,68.92,9.93z"/>
<path class="st0" d="M93.56,9.93c-0.78,0-1.53,0.17-2.19,0.48V9.93h-3.05v11.46h3.05v-6.21c0-1.21,0.98-2.19,2.19-2.19
	s2.19,0.98,2.19,2.19v6.21h3.05v-6.21C98.81,12.28,96.45,9.93,93.56,9.93z"/>
<path class="st1" d="M60.24,4.77L60.24,4.77c-1.05,0-1.91,0.85-1.91,1.91l0,0c0,1.05,0.85,1.91,1.91,1.91l0,0
	c1.05,0,1.91-0.85,1.91-1.91l0,0C62.15,5.63,61.29,4.77,60.24,4.77z"/>
<path class="st0" d="M111.52,16.61c0.05-0.31,0.08-0.63,0.08-0.95s-0.03-0.64-0.08-0.95c-0.46-2.71-2.81-4.77-5.65-4.77
	c-3.16,0-5.73,2.56-5.73,5.73s2.56,5.73,5.73,5.73c2.49,0,4.61-1.59,5.4-3.82h-3.53c-0.48,0.47-1.14,0.76-1.87,0.76
	c-1.14,0-2.11-0.71-2.5-1.72L111.52,16.61L111.52,16.61z M105.87,12.99c1.14,0,2.11,0.71,2.5,1.72h-4.99
	C103.76,13.7,104.73,12.99,105.87,12.99z"/>
<circle class="st2" cx="29.97" cy="15.69" r="6.68"/>
<path class="st2" d="M19.13,9.83l-5.75,9.96c-0.41,0.72-0.24,1.54,0.26,2.07c0.3,0.31,0.73,0.51,1.23,0.51h11.5
	c0.43,0,0.81-0.15,1.11-0.4c0.6-0.51,0.83-1.41,0.38-2.18L22.1,9.83c-0.36-0.62-1-0.9-1.63-0.85C19.95,9.02,19.43,9.31,19.13,9.83z"
	/>
<path class="st2" d="M26.34,22.37h-1.34c-0.47,0-0.9-0.19-1.21-0.5c-0.31-0.31-0.5-0.74-0.5-1.21v-9.93c0-0.44,0.16-0.84,0.43-1.14
	C24.04,9.23,24.5,9,25.01,9h1.34c0.47,0,0.9,0.19,1.21,0.5c0.31,0.31,0.5,0.74,0.5,1.21v9.93c0,0.65-0.36,1.21-0.88,1.5
	C26.93,22.29,26.65,22.37,26.34,22.37z"/>
<linearGradient id="SVGID_1_" gradientUnits="userSpaceOnUse" x1="34.6977" y1="706.9623" x2="25.2459" y2="716.414" gradientTransform="matrix(1 0 0 1 0 -696)">
	<stop  offset="0" style="stop-color:#FFA800"/>
	<stop  offset="1" style="stop-color:#FFD600"/>
</linearGradient>
<circle class="st3" cx="29.97" cy="15.69" r="6.68"/>
<linearGradient id="SVGID_00000135670146557218946010000017732623564497853872_" gradientUnits="userSpaceOnUse" x1="15.4692" y1="709.4044" x2="25.7596" y2="719.6948" gradientTransform="matrix(1 0 0 1 0 -696)">
	<stop  offset="0" style="stop-color:#FF9D00"/>
	<stop  offset="1" style="stop-color:#FFC262"/>
</linearGradient>
<path style="opacity:0.6;fill:url(#SVGID_00000135670146557218946010000017732623564497853872_);enable-background:new    ;" d="
	M19.13,9.83l-5.75,9.96c-0.41,0.72-0.24,1.54,0.26,2.07c0.3,0.31,0.73,0.51,1.23,0.51h11.5c0.17,0,0.32-0.02,0.47-0.06
	c1.04-0.29,1.59-1.51,1.02-2.51L22.1,9.83c-0.35-0.61-0.98-0.89-1.59-0.86C19.97,9.01,19.44,9.29,19.13,9.83z"/>
<linearGradient id="SVGID_00000157280755815299098010000018161565690431260062_" gradientUnits="userSpaceOnUse" x1="29.7079" y1="715.7194" x2="21.6446" y2="707.6561" gradientTransform="matrix(1 0 0 1 0 -696)">
	<stop  offset="0" style="stop-color:#FFD100"/>
	<stop  offset="1" style="stop-color:#FF7100"/>
</linearGradient>
<path style="opacity:0.6;fill:url(#SVGID_00000157280755815299098010000018161565690431260062_);enable-background:new    ;" d="
	M26.34,22.37h-1.34c-0.51,0-0.97-0.22-1.28-0.58c-0.27-0.3-0.43-0.7-0.43-1.14v-9.93c0-0.44,0.17-0.85,0.44-1.15
	C24.04,9.22,24.5,9,25.01,9h1.34c0.47,0,0.9,0.19,1.21,0.5c0.31,0.31,0.5,0.74,0.5,1.21v9.93c0,0.76-0.49,1.41-1.18,1.63
	C26.71,22.34,26.53,22.37,26.34,22.37z"/>
</svg>
