<?xml version="1.0" encoding="utf-8"?>
<!-- Generator: Adobe Illustrator 25.4.1, SVG Export Plug-In . SVG Version: 6.00 Build 0)  -->
<svg version="1.1" id="레이어_1" xmlns="http://www.w3.org/2000/svg" xmlns:xlink="http://www.w3.org/1999/xlink" x="0px"
	 y="0px" viewBox="0 0 344.96 70.33" style="enable-background:new 0 0 344.96 70.33;" xml:space="preserve">
<style type="text/css">
	.st0{fill:#141414;}
	.st1{fill:#FFCD50;}
	.st2{fill:#FFFFFF;}
	.st3{opacity:0.6;fill:url(#SVGID_1_);enable-background:new    ;}
	.st4{opacity:0.6;fill:url(#SVGID_00000109742859035423912770000003209789007773422244_);enable-background:new    ;}
	.st5{opacity:0.6;fill:url(#SVGID_00000071534678202374661970000000557351582158131095_);enable-background:new    ;}
</style>
<path class="st0" d="M232.59,23.56c-10.08,0-18.25,8.17-18.25,18.25s8.17,18.25,18.25,18.25s18.25-8.17,18.25-18.25
	S242.66,23.56,232.59,23.56z M232.59,50.32c-4.7,0-8.52-3.81-8.52-8.52s3.81-8.52,8.52-8.52c4.7,0,8.52,3.81,8.52,8.52
	S237.29,50.32,232.59,50.32z"/>
<path class="st0" d="M129.18,25.67c-2.54-1.34-5.44-2.11-8.52-2.11c-10.08,0-18.25,8.17-18.25,18.25s8.17,18.25,18.25,18.25
	c3.08,0,5.97-0.76,8.52-2.11v2.11h9.73v-36.5h-9.73V25.67z M120.67,50.32c-4.7,0-8.52-3.81-8.52-8.52s3.81-8.52,8.52-8.52
	c4.7,0,8.52,3.81,8.52,8.52S125.37,50.32,120.67,50.32z"/>
<rect x="145" y="23.56" class="st0" width="9.73" height="36.49"/>
<rect x="160.81" y="23.56" class="st0" width="9.73" height="36.49"/>
<path class="st0" d="M193.35,23.56c-2.5,0-4.87,0.55-6.99,1.53v-1.53h-9.73v36.49h9.73V40.28c0-3.86,3.13-6.99,6.99-6.99
	s6.99,3.13,6.99,6.99v19.77h9.73V40.28C210.08,31.05,202.59,23.56,193.35,23.56z"/>
<path class="st0" d="M271.82,23.56c-2.5,0-4.87,0.55-6.99,1.53v-1.53h-9.73v36.49h9.73V40.28c0-3.86,3.13-6.99,6.99-6.99
	s6.99,3.13,6.99,6.99v19.77h9.73V40.28C288.54,31.05,281.05,23.56,271.82,23.56z"/>
<path class="st1" d="M165.68,7.13L165.68,7.13c-3.36,0-6.08,2.72-6.08,6.08l0,0c0,3.36,2.72,6.08,6.08,6.08l0,0
	c3.36,0,6.08-2.72,6.08-6.08l0,0C171.76,9.86,169.04,7.13,165.68,7.13z"/>
<path class="st0" d="M329.04,44.85c0.17-0.99,0.26-2,0.26-3.04s-0.09-2.05-0.26-3.04c-1.45-8.63-8.95-15.21-17.99-15.21
	c-10.08,0-18.25,8.17-18.25,18.25s8.17,18.25,18.25,18.25c7.94,0,14.7-5.08,17.2-12.16H317c-1.54,1.5-3.64,2.43-5.96,2.43
	c-3.63,0-6.73-2.27-7.95-5.47L329.04,44.85L329.04,44.85z M311.05,33.29c3.63,0,6.73,2.27,7.95,5.47h-15.91
	C304.32,35.56,307.42,33.29,311.05,33.29z"/>
<circle class="st2" cx="69.27" cy="41.9" r="21.29"/>
<path class="st2" d="M34.72,23.25L16.4,54.98c-1.32,2.28-0.78,4.92,0.83,6.58c0.97,0.99,2.33,1.64,3.91,1.64h36.64
	c1.38,0,2.59-0.49,3.52-1.28c1.91-1.61,2.64-4.48,1.22-6.94L44.2,23.25c-1.14-1.97-3.19-2.88-5.18-2.72
	C37.33,20.67,35.69,21.57,34.72,23.25z"/>
<path class="st2" d="M57.71,63.19h-4.26c-1.51,0-2.88-0.61-3.87-1.6c-0.99-0.99-1.6-2.36-1.6-3.87V26.09c0-1.39,0.52-2.66,1.38-3.63
	c1-1.13,2.47-1.85,4.1-1.85h4.26c1.51,0,2.88,0.61,3.87,1.6c0.99,0.99,1.6,2.36,1.6,3.87v31.63c0,2.06-1.14,3.85-2.81,4.79
	C59.59,62.94,58.68,63.19,57.71,63.19z"/>
<linearGradient id="SVGID_1_" gradientUnits="userSpaceOnUse" x1="84.3243" y1="45.1543" x2="54.2157" y2="15.0457" gradientTransform="matrix(1 0 0 -1 0 72)">
	<stop  offset="0" style="stop-color:#FFA800"/>
	<stop  offset="1" style="stop-color:#FFD600"/>
</linearGradient>
<circle class="st3" cx="69.27" cy="41.9" r="21.29"/>
<linearGradient id="SVGID_00000099635911214261492970000015944325655876693920_" gradientUnits="userSpaceOnUse" x1="23.0718" y1="37.3751" x2="55.8521" y2="4.5947" gradientTransform="matrix(1 0 0 -1 0 72)">
	<stop  offset="0" style="stop-color:#FF9D00"/>
	<stop  offset="1" style="stop-color:#FFC262"/>
</linearGradient>
<path style="opacity:0.6;fill:url(#SVGID_00000099635911214261492970000015944325655876693920_);enable-background:new    ;" d="
	M34.72,23.25L16.4,54.98c-1.32,2.28-0.78,4.92,0.83,6.58c0.97,0.99,2.33,1.64,3.91,1.64h36.64c0.53,0,1.03-0.07,1.5-0.2
	c3.3-0.92,5.08-4.81,3.24-8.01L44.2,23.25c-1.11-1.93-3.11-2.84-5.06-2.73C37.41,20.62,35.71,21.53,34.72,23.25z"/>
<linearGradient id="SVGID_00000046339349087583504330000002001118076261554102_" gradientUnits="userSpaceOnUse" x1="68.4293" y1="17.2585" x2="42.7436" y2="42.9442" gradientTransform="matrix(1 0 0 -1 0 72)">
	<stop  offset="0" style="stop-color:#FFD100"/>
	<stop  offset="1" style="stop-color:#FF7100"/>
</linearGradient>
<path style="opacity:0.6;fill:url(#SVGID_00000046339349087583504330000002001118076261554102_);enable-background:new    ;" d="
	M57.71,63.19h-4.26c-1.63,0-3.09-0.71-4.09-1.84c-0.86-0.97-1.38-2.24-1.38-3.64V26.09c0-1.41,0.53-2.7,1.41-3.67
	c1-1.11,2.45-1.81,4.07-1.81h4.26c1.51,0,2.88,0.61,3.87,1.6c0.99,0.99,1.6,2.36,1.6,3.87v31.63c0,2.42-1.57,4.48-3.75,5.2
	C58.89,63.1,58.31,63.19,57.71,63.19z"/>
</svg>
